<svg width="156" height="46" viewBox="0 0 156 46" fill="none" xmlns="http://www.w3.org/2000/svg">
<rect width="156" height="46" rx="8" fill="#111111"/>
<path d="M31.7 22.9C31.7 18.9 34.9 16.9 35 16.8C33.2 14.2 30.4 13.9 29.5 13.9C27.2 13.7 25 15.3 23.8 15.3C22.6 15.3 20.8 13.9 18.9 13.9C16.4 14 14 15.4 12.7 17.7C10 22.4 12 29.4 14.6 33.1C15.9 34.9 17.4 36.9 19.4 36.8C21.3 36.7 22 35.6 24.4 35.6C26.8 35.6 27.4 36.8 29.4 36.8C31.5 36.8 32.8 35 34 33.1C35.5 31 36.1 28.9 36.1 28.8C36.1 28.8 31.8 27.2 31.7 22.9ZM28 11.5C29 10.3 29.7 8.6 29.5 7C28 7.1 26.2 8 25.1 9.2C24.2 10.3 23.4 12 23.6 13.5C25.2 13.6 27 12.7 28 11.5Z" fill="white"/>
<text x="48" y="18" fill="white" font-family="Arial, Helvetica, sans-serif" font-size="9">Download on the</text>
<text x="48" y="33" fill="white" font-family="Arial, Helvetica, sans-serif" font-size="17" font-weight="700">App Store</text>
</svg>
