<svg width="156" height="46" viewBox="0 0 156 46" fill="none" xmlns="http://www.w3.org/2000/svg">
<rect width="156" height="46" rx="8" fill="#111111"/>
<path d="M16 9.6V36.4C16 37.1 16.4 37.7 17 38L29.9 23L17 8C16.4 8.3 16 8.9 16 9.6Z" fill="#34A853"/>
<path d="M36.3 20.8L30 17.2L26.1 21.7L30 26.2L36.3 22.6C37 22.2 37 21.2 36.3 20.8Z" fill="#FBBC04"/>
<path d="M17 8L30 17.2L34 12.6L19.4 8.2C18.5 7.9 17.7 7.8 17 8Z" fill="#4285F4"/>
<path d="M17 38C17.7 38.2 18.5 38.1 19.4 37.8L34 33.4L30 26.2L17 38Z" fill="#EA4335"/>
<text x="48" y="18" fill="white" font-family="Arial, Helvetica, sans-serif" font-size="9">GET IT ON</text>
<text x="48" y="33" fill="white" font-family="Arial, Helvetica, sans-serif" font-size="17" font-weight="700">Google Play</text>
</svg>
