<svg width="24" height="22" viewBox="0 0 24 22" fill="none" xmlns="http://www.w3.org/2000/svg">
<path d="M6.4245 12.0311H21.0015C21.3241 12.0082 21.6296 11.8774 21.8687 11.6597C22.1078 11.442 22.2666 11.1501 22.3195 10.8311L23.8705 4.46305C23.9201 4.31626 23.9367 4.16036 23.9192 4.00642C23.9017 3.85249 23.8505 3.70429 23.7693 3.57236C23.6881 3.44044 23.5788 3.32803 23.4492 3.24312C23.3196 3.1582 23.1729 3.10287 23.0195 3.08105H4.5105L6.4245 12.0311Z" fill="#1D1D1D"/>
<path d="M20.6465 16.157H7.02251C6.92717 16.149 6.83747 16.1085 6.76846 16.0422C6.69945 15.9759 6.65534 15.8879 6.64351 15.793L3.72951 1.859C3.70074 1.62771 3.59332 1.41335 3.42527 1.25185C3.25722 1.09036 3.03876 0.991552 2.80651 0.972H0.38251C0.273476 0.945641 0.176474 0.883382 0.107097 0.795235C0.0377205 0.707088 0 0.598174 0 0.486C0 0.373826 0.0377205 0.264909 0.107097 0.176762C0.176474 0.0886146 0.273476 0.0263588 0.38251 0H2.80651C3.23016 0.0346465 3.62896 0.214123 3.93583 0.508247C4.2427 0.802372 4.43893 1.1932 4.49151 1.615L7.32951 15.185H20.6465C20.7555 15.2114 20.8525 15.2736 20.9219 15.3618C20.9913 15.4499 21.029 15.5588 21.029 15.671C21.029 15.7832 20.9913 15.8921 20.9219 15.9802C20.8525 16.0684 20.7555 16.1306 20.6465 16.157Z" fill="#1D1D1D"/>
<path d="M9.6895 21.6622C10.8526 21.6622 11.7955 20.7193 11.7955 19.5562C11.7955 18.3931 10.8526 17.4502 9.6895 17.4502C8.52638 17.4502 7.5835 18.3931 7.5835 19.5562C7.5835 20.7193 8.52638 21.6622 9.6895 21.6622Z" fill="#1D1D1D"/>
<path d="M18.1365 21.6622C19.2996 21.6622 20.2425 20.7193 20.2425 19.5562C20.2425 18.3931 19.2996 17.4502 18.1365 17.4502C16.9734 17.4502 16.0305 18.3931 16.0305 19.5562C16.0305 20.7193 16.9734 21.6622 18.1365 21.6622Z" fill="#1D1D1D"/>
</svg>
