<svg width="24" height="24" viewBox="0 0 24 24" fill="none" xmlns="http://www.w3.org/2000/svg">
<g opacity="0.88" clip-path="url(#clip0_3637_43842)">
<path d="M2.9091 9.27272C2.36365 9.27272 2 8.90907 2 8.36362V4.72726C2 3.18181 3.18181 2 4.72726 2H8.36362C8.90907 2 9.27272 2.36365 9.27272 2.9091C9.27272 3.45455 8.90907 3.8182 8.36362 3.8182H4.72726C4.18181 3.8182 3.81816 4.18185 3.81816 4.7273V8.36366C3.8182 8.90907 3.45455 9.27272 2.9091 9.27272Z" fill="#FC8019"/>
<path d="M21.091 9.27272C20.5455 9.27272 20.1819 8.90907 20.1819 8.36362V4.72726C20.1819 4.18181 19.8182 3.81816 19.2728 3.81816H15.6364C15.0909 3.81816 14.7273 3.45451 14.7273 2.90906C14.7273 2.36361 15.0909 2 15.6364 2H19.2728C20.8182 2 22 3.18181 22 4.72726V8.36362C22.0001 8.90907 21.6364 9.27272 21.091 9.27272Z" fill="#FC8019"/>
<path d="M8.36362 22.0003H4.72726C3.18181 22.0003 2 20.8185 2 19.273V15.6366C2 15.0912 2.36365 14.7275 2.9091 14.7275C3.45455 14.7275 3.8182 15.0912 3.8182 15.6366V19.273C3.8182 19.8185 4.18185 20.1821 4.7273 20.1821H8.36366C8.90911 20.1821 9.27276 20.5457 9.27276 21.0912C9.27272 21.6366 8.90907 22.0003 8.36362 22.0003Z" fill="#FC8019"/>
<path d="M19.2728 22.0003H15.6364C15.0909 22.0003 14.7273 21.6366 14.7273 21.0912C14.7273 20.5457 15.0909 20.1821 15.6364 20.1821H19.2728C19.8182 20.1821 20.1819 19.8185 20.1819 19.273V15.6366C20.1819 15.0912 20.5455 14.7275 21.091 14.7275C21.6364 14.7275 22.0001 15.0912 22.0001 15.6366V19.273C22 20.8185 20.8182 22.0003 19.2728 22.0003Z" fill="#FC8019"/>
<path d="M10.1818 11.0913H6.54545C6 11.0913 5.63635 10.7276 5.63635 10.1822V6.54582C5.63635 6.00037 6 5.63672 6.54545 5.63672H10.1818C10.7273 5.63672 11.0909 6.00037 11.0909 6.54582V10.1822C11.0909 10.7276 10.7273 11.0913 10.1818 11.0913ZM7.45455 9.27308H9.27275V7.45488H7.45455V9.27308Z" fill="#FC8019"/>
<path d="M10.1818 18.3637H6.54545C6 18.3637 5.63635 18.0001 5.63635 17.4546V13.8183C5.63635 13.2728 6 12.9092 6.54545 12.9092H10.1818C10.7273 12.9092 11.0909 13.2728 11.0909 13.8183V17.4546C11.0909 18.0001 10.7273 18.3637 10.1818 18.3637ZM7.45455 16.5455H9.27275V14.7273H7.45455V16.5455Z" fill="#FC8019"/>
<path d="M17.4545 11.0913H13.8182C13.2727 11.0913 12.9091 10.7276 12.9091 10.1822V6.54582C12.9091 6.00037 13.2727 5.63672 13.8182 5.63672H17.4545C18 5.63672 18.3636 6.00037 18.3636 6.54582V10.1822C18.3636 10.7276 18 11.0913 17.4545 11.0913ZM14.7273 9.27308H16.5455V7.45488H14.7273V9.27308Z" fill="#FC8019"/>
<path d="M13.8182 15.6365C13.2727 15.6365 12.9091 15.2728 12.9091 14.7274V13.8183C12.9091 13.2728 13.2727 12.9092 13.8182 12.9092C14.3636 12.9092 14.7273 13.2728 14.7273 13.8183V14.7274C14.7273 15.2729 14.3636 15.6365 13.8182 15.6365Z" fill="#FC8019"/>
<path d="M17.4546 14.7274H16.5455C16 14.7274 15.6364 14.3637 15.6364 13.8183C15.6364 13.2728 16 12.9092 16.5455 12.9092H17.4546C18 12.9092 18.3637 13.2728 18.3637 13.8183C18.3637 14.3637 18 14.7274 17.4546 14.7274Z" fill="#FC8019"/>
<path d="M17.4546 18.3641H14.7273C14.1819 18.3641 13.8182 18.0004 13.8182 17.455C13.8182 16.9095 14.1819 16.5459 14.7273 16.5459H17.4546C18.0001 16.5459 18.3637 16.9095 18.3637 17.455C18.3637 18.0004 18.0001 18.3641 17.4546 18.3641Z" fill="#FC8019"/>
</g>
<defs>
<clipPath id="clip0_3637_43842">
<rect width="20" height="20" fill="white" transform="translate(2 2)"/>
</clipPath>
</defs>
</svg>
