<svg width="23" height="22" viewBox="0 0 23 22" fill="none" xmlns="http://www.w3.org/2000/svg">
<path d="M22.583 11.9042C22.3968 10.0366 21.6262 8.27526 20.3809 6.87104C19.1355 5.46681 17.479 4.49123 15.647 4.08319V2.96119C16.0077 2.87749 16.3248 2.66329 16.5371 2.35982C16.7494 2.05635 16.8419 1.68508 16.7968 1.31748C16.7518 0.949876 16.5723 0.611943 16.293 0.368742C16.0137 0.12554 15.6543 -0.00573457 15.284 0.000192277H12.101C11.7307 -0.00573457 11.3713 0.12554 11.092 0.368742C10.8126 0.611943 10.6332 0.949876 10.5881 1.31748C10.5431 1.68508 10.6356 2.05635 10.8479 2.35982C11.0602 2.66329 11.3772 2.87749 11.738 2.96119V4.08719C10.089 4.45461 8.57915 5.28515 7.38598 6.48119C7.11824 6.74907 6.86774 7.03364 6.63598 7.33319H6.60298H3.45498C3.33775 7.33319 3.22533 7.37976 3.14244 7.46265C3.05954 7.54554 3.01298 7.65797 3.01298 7.77519C3.01298 7.89242 3.05954 8.00484 3.14244 8.08773C3.22533 8.17062 3.33775 8.21719 3.45498 8.21719H6.03698C5.71633 8.75458 5.45353 9.32443 5.25298 9.91719H0.442977C0.325751 9.91719 0.213326 9.96376 0.130435 10.0467C0.0475443 10.1295 0.000976563 10.242 0.000976562 10.3592C0.000976563 10.4764 0.0475443 10.5888 0.130435 10.6717C0.213326 10.7546 0.325751 10.8012 0.442977 10.8012H5.00098C4.87397 11.3596 4.80064 11.9288 4.78198 12.5012H2.82898C2.71175 12.5012 2.59933 12.5478 2.51644 12.6307C2.43354 12.7135 2.38698 12.826 2.38698 12.9432C2.38698 13.0604 2.43354 13.1728 2.51644 13.2557C2.59933 13.3386 2.71175 13.3852 2.82898 13.3852H4.80098C4.83825 13.9594 4.93068 14.5287 5.07698 15.0852H2.21098C2.09375 15.0852 1.98133 15.1318 1.89844 15.2147C1.81554 15.2975 1.76898 15.41 1.76898 15.5272C1.76898 15.6444 1.81554 15.7568 1.89844 15.8397C1.98133 15.9226 2.09375 15.9692 2.21098 15.9692H5.35598C5.94504 17.5216 6.95549 18.8789 8.27372 19.8886C9.59195 20.8982 11.1657 21.52 12.818 21.6842C13.11 21.7129 13.402 21.7272 13.694 21.7272C15.423 21.728 17.1152 21.2278 18.566 20.2872C18.6151 20.2558 18.6576 20.2149 18.6909 20.167C18.7242 20.1191 18.7477 20.0651 18.76 20.0081C18.7723 19.951 18.7732 19.8921 18.7627 19.8347C18.7521 19.7774 18.7303 19.7226 18.6985 19.6737C18.6667 19.6248 18.6255 19.5827 18.5773 19.5498C18.5291 19.5169 18.4749 19.4938 18.4178 19.482C18.3607 19.4701 18.3018 19.4697 18.2445 19.4807C18.1872 19.4917 18.1326 19.514 18.084 19.5462C16.4175 20.6287 14.4092 21.056 12.4464 20.7456C10.4836 20.4353 8.70511 19.4092 7.45392 17.8653C6.20273 16.3214 5.56739 14.369 5.67038 12.3845C5.77338 10.3999 6.60742 8.52374 8.01172 7.11767C9.41601 5.7116 11.2911 4.87518 13.2755 4.76967C15.26 4.66416 17.2132 5.29703 18.7587 6.54627C20.3041 7.7955 21.3324 9.57265 21.6453 11.5351C21.9581 13.4975 21.5334 15.5063 20.453 17.1742C20.4189 17.2228 20.3949 17.2778 20.3825 17.3359C20.3701 17.394 20.3696 17.4539 20.3809 17.5122C20.3922 17.5705 20.4151 17.6259 20.4484 17.6752C20.4816 17.7244 20.5243 17.7665 20.5742 17.7988C20.624 17.8311 20.6798 17.8531 20.7383 17.8634C20.7968 17.8737 20.8567 17.872 20.9146 17.8586C20.9724 17.8452 21.027 17.8203 21.075 17.7854C21.123 17.7504 21.1635 17.7061 21.194 17.6552C22.2952 15.9509 22.7849 13.9232 22.583 11.9042ZM11.483 1.50419C11.483 1.34002 11.5482 1.18258 11.6643 1.06649C11.7804 0.950408 11.9378 0.885193 12.102 0.885193H15.284C15.4437 0.891617 15.5948 0.959589 15.7055 1.07488C15.8163 1.19017 15.8781 1.34383 15.8781 1.50369C15.8781 1.66355 15.8163 1.81722 15.7055 1.93251C15.5948 2.04779 15.4437 2.11577 15.284 2.12219H12.101C11.9372 2.12166 11.7802 2.05621 11.6646 1.94019C11.5489 1.82416 11.484 1.66702 11.484 1.50319L11.483 1.50419ZM12.623 3.93619V3.00719H14.762V3.93519C14.0517 3.85124 13.334 3.85225 12.624 3.93819L12.623 3.93619Z" fill="#E51000"/>
<path d="M19.6999 18.3506C19.5976 18.3506 19.4985 18.386 19.4194 18.4509C19.3404 18.5158 19.2862 18.6061 19.2663 18.7065C19.2464 18.8068 19.2618 18.9109 19.3101 19.0011C19.3584 19.0913 19.4364 19.162 19.5309 19.201C19.6255 19.2401 19.7306 19.2452 19.8285 19.2155C19.9263 19.1857 20.0108 19.1229 20.0676 19.0378C20.1243 18.9526 20.1498 18.8505 20.1396 18.7487C20.1295 18.6469 20.0843 18.5518 20.0119 18.4796C19.9289 18.3972 19.8168 18.3508 19.6999 18.3506Z" fill="#E51000"/>
<path d="M13.7002 5.9375C12.3444 5.9375 11.0191 6.33955 9.89178 7.09279C8.76448 7.84603 7.88585 8.91662 7.36701 10.1692C6.84818 11.4218 6.71244 12.8001 6.97694 14.1299C7.24144 15.4596 7.8943 16.681 8.85299 17.6397C9.81168 18.5984 11.0331 19.2513 12.3629 19.5158C13.6926 19.7803 15.0709 19.6445 16.3235 19.1257C17.5761 18.6069 18.6467 17.7282 19.3999 16.6009C20.1532 15.4736 20.5552 14.1483 20.5552 12.7925C20.5531 10.9751 19.8302 9.23274 18.5451 7.94763C17.26 6.66253 15.5176 5.93962 13.7002 5.9375ZM13.7002 18.7645C12.5191 18.7645 11.3644 18.4143 10.3823 17.758C9.40026 17.1018 8.63482 16.1691 8.18281 15.0779C7.7308 13.9867 7.61254 12.7859 7.84297 11.6274C8.0734 10.469 8.64218 9.40487 9.47738 8.56967C10.3126 7.73447 11.3767 7.16569 12.5351 6.93526C13.6936 6.70483 14.8944 6.82309 15.9856 7.2751C17.0768 7.72711 18.0095 8.49255 18.6658 9.47464C19.322 10.4567 19.6722 11.6114 19.6722 12.7925C19.6706 14.3759 19.0409 15.894 17.9213 17.0136C16.8017 18.1332 15.2836 18.7629 13.7002 18.7645Z" fill="#E51000"/>
<path d="M16.4962 9.37189L14.3072 11.5609C14.1186 11.4678 13.911 11.4193 13.7007 11.4193C13.4903 11.4193 13.2828 11.4678 13.0942 11.5609L12.1142 10.5809C12.0308 10.5002 11.9191 10.4555 11.8031 10.4565C11.6872 10.4574 11.5762 10.5039 11.4942 10.5859C11.4122 10.6679 11.3657 10.7789 11.3648 10.8949C11.3638 11.0108 11.4085 11.1226 11.4892 11.2059L12.4692 12.1859C12.366 12.3952 12.3179 12.6274 12.3293 12.8605C12.3408 13.0936 12.4115 13.3199 12.5348 13.5181C12.658 13.7163 12.8298 13.8798 13.0338 13.9931C13.2378 14.1065 13.4673 14.166 13.7007 14.166C13.934 14.166 14.1636 14.1065 14.3676 13.9931C14.5716 13.8798 14.7433 13.7163 14.8666 13.5181C14.9898 13.3199 15.0605 13.0936 15.072 12.8605C15.0835 12.6274 15.0354 12.3952 14.9322 12.1859L17.0572 10.0609L17.1212 9.99689C17.1633 9.95609 17.1969 9.90733 17.22 9.85342C17.2431 9.79952 17.2552 9.74155 17.2557 9.68291C17.2562 9.62426 17.245 9.5661 17.2228 9.51182C17.2006 9.45755 17.1678 9.40825 17.1263 9.36677C17.0848 9.3253 17.0355 9.2925 16.9812 9.27028C16.927 9.24805 16.8688 9.23684 16.8102 9.23732C16.7515 9.2378 16.6935 9.24994 16.6396 9.27304C16.5857 9.29614 16.537 9.32975 16.4962 9.37189ZM13.6962 13.2819C13.5995 13.2819 13.5049 13.2532 13.4245 13.1995C13.3441 13.1457 13.2814 13.0694 13.2444 12.98C13.2074 12.8907 13.1977 12.7924 13.2166 12.6975C13.2354 12.6026 13.282 12.5155 13.3504 12.4471C13.4188 12.3787 13.5059 12.3321 13.6008 12.3133C13.6956 12.2944 13.794 12.3041 13.8833 12.3411C13.9727 12.3781 14.049 12.4408 14.1028 12.5212C14.1565 12.6016 14.1852 12.6962 14.1852 12.7929C14.1846 12.9215 14.1336 13.0447 14.0431 13.136C13.9525 13.2273 13.8298 13.2793 13.7012 13.2809L13.6962 13.2819Z" fill="#E51000"/>
<path d="M18.4252 12.3564H18.0192C17.9019 12.3564 17.7895 12.403 17.7066 12.4859C17.6237 12.5688 17.5771 12.6812 17.5771 12.7985C17.5771 12.9157 17.6237 13.0281 17.7066 13.111C17.7895 13.1939 17.9019 13.2404 18.0192 13.2404H18.4282C18.5454 13.2404 18.6578 13.1939 18.7407 13.111C18.8236 13.0281 18.8701 12.9157 18.8701 12.7985C18.8701 12.6812 18.8236 12.5688 18.7407 12.4859C18.6578 12.403 18.5454 12.3564 18.4282 12.3564H18.4252Z" fill="#E51000"/>
<path d="M9.38518 12.3447H8.97618C8.85896 12.3447 8.74653 12.3913 8.66364 12.4742C8.58074 12.5571 8.53418 12.6695 8.53418 12.7867C8.53418 12.904 8.58074 13.0164 8.66364 13.0993C8.74653 13.1822 8.85896 13.2287 8.97618 13.2287H9.38518C9.5024 13.2287 9.61483 13.1822 9.69772 13.0993C9.78061 13.0164 9.82718 12.904 9.82718 12.7867C9.82718 12.6695 9.78061 12.5571 9.69772 12.4742C9.61483 12.3913 9.5024 12.3447 9.38518 12.3447Z" fill="#E51000"/>
<path d="M13.7062 8.91898C13.8234 8.91898 13.9358 8.87241 14.0187 8.78952C14.1016 8.70663 14.1482 8.5942 14.1482 8.47697V8.06798C14.1482 7.95075 14.1016 7.83832 14.0187 7.75543C13.9358 7.67254 13.8234 7.62598 13.7062 7.62598C13.589 7.62598 13.4765 7.67254 13.3936 7.75543C13.3108 7.83832 13.2642 7.95075 13.2642 8.06798V8.47697C13.2642 8.5942 13.3108 8.70663 13.3936 8.78952C13.4765 8.87241 13.589 8.91898 13.7062 8.91898Z" fill="#E51000"/>
<path d="M13.6952 16.666C13.578 16.666 13.4655 16.7126 13.3826 16.7955C13.2997 16.8784 13.2532 16.9908 13.2532 17.108V17.517C13.2532 17.6342 13.2997 17.7467 13.3826 17.8296C13.4655 17.9125 13.578 17.959 13.6952 17.959C13.8124 17.959 13.9248 17.9125 14.0077 17.8296C14.0906 17.7467 14.1372 17.6342 14.1372 17.517V17.108C14.1372 16.9908 14.0906 16.8784 14.0077 16.7955C13.9248 16.7126 13.8124 16.666 13.6952 16.666Z" fill="#E51000"/>
<path d="M0.44308 15.0771C0.370315 15.077 0.298632 15.0948 0.234393 15.1289C0.170153 15.1631 0.115346 15.2126 0.074835 15.2731C0.034324 15.3335 0.00936274 15.403 0.00216676 15.4754C-0.00502921 15.5478 0.00576273 15.6209 0.0335847 15.6881C0.0614066 15.7554 0.105398 15.8147 0.161654 15.8609C0.21791 15.907 0.28469 15.9386 0.356066 15.9527C0.427443 15.9668 0.501209 15.9632 0.570815 15.942C0.640422 15.9208 0.703716 15.8827 0.75508 15.8311C0.816678 15.7693 0.8586 15.6907 0.875566 15.6051C0.892532 15.5195 0.883781 15.4308 0.850416 15.3502C0.817051 15.2695 0.760565 15.2006 0.688077 15.152C0.615589 15.1034 0.530342 15.0774 0.44308 15.0771Z" fill="#E51000"/>
</svg>
